<svg width="279" height="196" viewBox="0 0 279 196" fill="none" xmlns="http://www.w3.org/2000/svg">
<path d="M266.881 76.792H260.432L260.433 76.794H178.127L179.373 78.961C180.589 81.075 182.842 82.379 185.281 82.379H263.658L272.524 97.736L242.793 149.232H222.611L219.387 154.817H246.017L278.973 97.737L266.881 76.792Z" fill="#909090"/>
<path d="M83.77 154.816H99.214H184.77L184.773 154.817V154.816L187.998 149.231L189.435 146.743L193.154 140.301C186.322 145.773 180.597 149.103 172.611 149.231H80.546H56.363H36.18L6.44901 97.735L36.18 46.239H56.363L59.587 40.654H32.957L1.52588e-05 97.734L32.957 154.814H59.588H83.77V154.816Z" fill="#919191"/>
<path d="M94.202 40.655L90.977 46.24L85.821 55.171C92.657 49.695 98.386 46.364 106.38 46.24H242.794L249.813 58.397C251.03 60.506 253.28 61.805 255.715 61.805H258.229L246.018 40.656H219.387H195.204L94.202 40.655Z" fill="#909090"/>
<path d="M222.612 149.231L252.343 97.735H228.161L228.16 97.736H163.671L151.579 76.791H127.395L115.303 97.735L127.395 118.679H151.578H151.579H216.068L206.968 134.441H206.969L183.824 174.528H95.152L88.64 163.249H76.773H48.471C59.589 166.091 69.664 172.267 76.773 184.579L83.061 195.471H195.916L219.388 154.816L222.612 149.231Z" fill="#2196F3"/>
<path d="M56.363 46.24L26.632 97.735L56.363 149.231H80.546L50.814 97.735L80.546 46.24L83.771 40.655L95.152 20.943H183.824L195.204 40.655H219.387L195.915 0L83.06 0L59.588 40.655L56.363 46.24Z" fill="#2196F3"/>
</svg>
